<svg xmlns="http://www.w3.org/2000/svg" viewBox="0 0 512 512">
  <!-- Círculo exterior (ficha) -->
  <circle cx="256" cy="256" r="240" fill="#ffc107" stroke="#000" stroke-width="12"/>
  
  <!-- Detalles de la ficha (muescas) -->
  <path d="M256 16c-22 0-43.8 2.5-64.5 7.3l9.7 42.4c17.5-3.6 35.7-5.5 54.8-5.5s37.3 1.9 54.8 5.5l9.7-42.4C299.8 18.5 278 16 256 16z" fill="#ff9800"/>
  <path d="M120 52.3C78.4 78.6 45.8 119.7 29.5 168l40.5 15.8c13-38.7 38.5-71.8 71.8-92.8L120 52.3z" fill="#ff9800"/>
  <path d="M29.5 344c16.3 48.3 48.9 89.4 90.5 115.7l21.8-38.7c-33.3-21-58.8-54.1-71.8-92.8L29.5 344z" fill="#ff9800"/>
  <path d="M392 52.3l-21.8 38.7c33.3 21 58.8 54.1 71.8 92.8l40.5-15.8c-16.3-48.3-48.9-89.4-90.5-115.7z" fill="#ff9800"/>
  <path d="M442.5 344l-40.5-15.8c-13 38.7-38.5 71.8-71.8 92.8l21.8 38.7c41.6-26.3 74.2-67.4 90.5-115.7z" fill="#ff9800"/>
  <path d="M256 496c22 0 43.8-2.5 64.5-7.3l-9.7-42.4c-17.5 3.6-35.7 5.5-54.8 5.5s-37.3-1.9-54.8-5.5l-9.7 42.4c20.7 4.8 42.5 7.3 64.5 7.3z" fill="#ff9800"/>
  
  <!-- Círculo interior (blanco) -->
  <circle cx="256" cy="256" r="150" fill="#fff" stroke="#000" stroke-width="8"/>
  
  <!-- Símbolo de pica -->
  <path d="M256 150c-20 0-40 15-50 35-10 20-5 50 25 70-5 10-15 15-25 15h-5l-5 25h120l-5-25h-5c-10 0-20-5-25-15 30-20 35-50 25-70-10-20-30-35-50-35z" fill="#303f9f" stroke="#000" stroke-width="8"/>
</svg> 